<svg id="bold" enable-background="new 0 0 24 24" height="512" viewBox="0 0 24 24" width="512" xmlns="http://www.w3.org/2000/svg"><path d="m17.5 24c3.584 0 6.5-2.916 6.5-6.5s-2.916-6.5-6.5-6.5-6.5 2.916-6.5 6.5 2.916 6.5 6.5 6.5zm5-6.5c0 2.757-2.243 5-5 5-1.108 0-2.123-.374-2.953-.987l6.967-6.966c.612.83.986 1.845.986 2.953zm-5-5c1.108 0 2.123.374 2.953.987l-6.967 6.966c-.612-.83-.986-1.845-.986-2.953 0-2.757 2.243-5 5-5z"/><path d="m1 24c.552 0 1-.448 1-1v-7c0-.552-.448-1-1-1s-1 .448-1 1v7c0 .552.448 1 1 1z"/><path d="m6 12v11c0 .552.448 1 1 1s1-.448 1-1v-11c0-.552-.448-1-1-1s-1 .448-1 1z"/><path d="m14 6c0-.55-.45-1-1-1s-1 .45-1 1v5.02c.6-.51 1.27-.94 2-1.26z"/><path d="m19 0c-.55 0-1 .45-1 1v8.01c.69.04 1.36.17 2 .36v-8.37c0-.55-.45-1-1-1z"/></svg>