<svg id="bold" enable-background="new 0 0 24 24" height="512" viewBox="0 0 24 24" width="512" xmlns="http://www.w3.org/2000/svg"><path d="m22.293 23.707c.195.195.451.293.707.293s.512-.098.707-.293c.391-.391.391-1.023 0-1.414l-6.978-6.978 3.021-4.315c.161-.215.25-.481.25-.75 0-.689-.561-1.25-1.25-1.25h-5.406l.9-7.603c.003-.029.005-.118.005-.147.001-.689-.56-1.25-1.249-1.25-.392 0-.766.188-1.022.531l-4.039 5.994-6.232-6.232c-.391-.391-1.023-.391-1.414 0s-.391 1.023 0 1.414z"/><path d="m4.25 12c-.161.215-.25.481-.25.75 0 .689.561 1.25 1.25 1.25h4.417l-.912 8.621c-.004.026-.005.103-.005.129 0 .689.561 1.25 1.25 1.25.392 0 .766-.188 1.014-.521l3.677-5.253-8.744-8.744z"/></svg>