<?xml version="1.0" standalone="no"?>
<!DOCTYPE svg PUBLIC "-//W3C//DTD SVG 20010904//EN"
 "http://www.w3.org/TR/2001/REC-SVG-20010904/DTD/svg10.dtd">
<svg version="1.0" xmlns="http://www.w3.org/2000/svg"
 width="700.000000pt" height="700.000000pt" viewBox="0 0 700.000000 700.000000"
 preserveAspectRatio="xMidYMid meet">
<metadata>
Created by potrace 1.11, written by Peter Selinger 2001-2013
</metadata>
<g transform="translate(0.000000,700.000000) scale(0.100000,-0.100000)"
fill="#000000" stroke="none">
<path d="M2180 6016 c-363 -43 -679 -147 -975 -323 -650 -385 -1072 -1016
-1182 -1768 -24 -167 -24 -507 0 -665 35 -226 99 -452 182 -641 167 -382 455
-743 783 -981 80 -59 92 -74 73 -93 -21 -22 -72 -138 -86 -197 -19 -82 -20
-210 0 -247 37 -73 130 -115 295 -132 151 -16 716 -6 821 14 88 17 163 48 199
81 14 13 39 31 55 39 17 8 39 24 49 36 16 18 31 21 96 21 l77 0 17 -43 c16
-44 49 -87 66 -87 5 0 16 7 25 16 16 16 15 26 -2 101 -4 19 0 22 54 28 374 43
796 204 1108 424 191 134 407 343 546 527 l75 100 48 -33 c132 -91 271 -8 549
327 66 80 124 149 128 154 4 5 31 -13 59 -40 l51 -49 4 -228 c4 -193 20 -455
28 -463 3 -3 914 -438 1014 -484 45 -21 156 -80 247 -130 181 -100 366 -190
390 -190 8 0 18 5 22 11 12 19 -17 160 -56 274 -47 136 -117 408 -136 529 -8
50 -37 191 -64 314 -73 324 -96 462 -119 692 -26 264 -38 431 -51 710 -5 124
-15 330 -22 458 -10 192 -9 279 2 490 8 141 14 282 12 312 -1 30 5 100 14 155
17 105 11 149 -21 161 -19 8 -81 -29 -170 -100 -38 -31 -232 -153 -431 -271
-319 -190 -413 -239 -600 -315 -34 -14 -73 -105 -75 -175 -2 -86 18 -791 27
-913 4 -56 4 -102 1 -102 -3 0 -31 13 -64 29 -85 42 -176 63 -279 65 l-91 1
-6 230 c-3 172 -10 260 -26 350 -93 521 -316 952 -685 1320 -382 381 -841 611
-1380 691 -143 21 -455 26 -596 10z m635 -95 c264 -45 512 -128 735 -248 95
-51 300 -183 300 -194 0 -3 -30 0 -67 9 -105 24 -445 23 -538 -2 -81 -21 -176
-63 -230 -99 l-37 -25 -53 18 c-125 43 -213 55 -410 55 -163 0 -205 -3 -295
-23 -381 -86 -775 -307 -1067 -599 -226 -225 -385 -530 -424 -810 l-12 -84
-51 -34 c-128 -85 -259 -259 -330 -436 -44 -109 -93 -292 -102 -381 -9 -91 -1
-96 120 -70 170 37 298 98 397 189 33 31 61 54 63 52 3 -2 18 -40 36 -84 81
-205 207 -403 344 -541 242 -242 589 -397 1031 -459 55 -8 105 -15 111 -15 6
0 -34 -46 -89 -103 -55 -56 -131 -139 -169 -184 l-70 -82 -47 23 c-98 50 -188
70 -311 70 -183 1 -322 -49 -460 -166 l-71 -59 -92 69 c-817 616 -1146 1667
-826 2637 51 152 176 409 267 545 232 347 533 617 893 800 274 140 518 211
869 254 19 2 132 3 250 1 158 -3 247 -9 335 -24z m1301 -673 c184 -189 309
-363 423 -588 80 -157 131 -289 172 -444 57 -216 71 -322 76 -576 l5 -235 -67
-23 c-109 -37 -174 -80 -265 -171 -64 -64 -96 -107 -128 -169 l-43 -83 -33 20
c-17 11 -52 28 -76 39 l-44 19 187 133 c148 105 187 138 185 153 -6 37 -30 42
-109 23 -84 -20 -302 -103 -401 -152 -37 -19 -70 -34 -72 -34 -3 0 4 26 15 58
27 78 64 227 85 342 13 71 18 149 18 305 0 228 -15 330 -71 495 -52 153 -164
337 -300 495 -121 140 -125 145 -111 145 26 0 160 71 217 115 63 48 172 162
199 207 9 16 21 28 27 28 6 0 56 -46 111 -102z m2364 -270 c-22 -114 -45 -447
-45 -658 0 -178 2 -223 26 -525 11 -132 17 -255 14 -273 -4 -19 -2 -39 3 -45
5 -7 12 -84 15 -172 7 -170 30 -434 47 -525 5 -30 17 -100 26 -155 9 -55 22
-125 29 -155 8 -30 25 -127 40 -215 14 -88 32 -196 40 -240 8 -44 20 -114 26
-155 6 -41 22 -117 35 -169 13 -51 24 -101 24 -111 0 -20 34 -137 76 -260 14
-41 28 -83 31 -93 5 -16 -2 -14 -48 11 -30 16 -70 38 -89 50 -20 12 -117 58
-215 102 -99 45 -211 98 -250 119 -38 21 -88 44 -110 51 -22 7 -53 20 -70 30
-16 10 -55 28 -85 40 -76 30 -217 94 -325 145 -49 24 -128 60 -176 80 -47 20
-99 45 -117 55 l-32 20 -1 112 c0 62 -4 167 -9 233 -19 238 -23 342 -14 347 5
3 52 1 104 -6 l94 -12 9 -39 c9 -42 2 -234 -12 -321 -15 -100 17 -252 67 -308
23 -25 90 -56 126 -56 27 0 24 3 -32 39 -97 63 -95 54 -101 435 l-6 328 73
109 c41 60 78 109 83 109 21 0 7 -41 -21 -62 -31 -23 -25 -40 11 -31 27 7 42
39 49 97 3 27 10 51 16 53 8 3 10 -17 6 -67 -4 -58 -2 -70 10 -70 9 0 22 7 29
17 12 14 15 11 19 -33 4 -36 10 -50 23 -52 15 -3 17 7 17 102 0 58 -4 106 -9
106 -5 0 -21 -13 -34 -30 -14 -16 -29 -30 -32 -30 -3 0 -5 17 -3 38 l3 37 55
3 c30 2 60 5 67 7 49 16 55 706 6 743 -35 26 -278 1 -402 -41 l-64 -22 -31
-70 c-26 -61 -30 -81 -30 -160 1 -49 4 -103 8 -120 5 -20 3 -36 -7 -49 -14
-19 -15 -19 -44 2 l-30 21 -6 167 c-4 92 -7 348 -7 570 l0 403 22 15 c12 9 33
16 46 16 13 0 36 8 50 19 15 10 51 26 81 35 30 9 75 29 100 45 25 16 64 36 85
45 21 9 64 33 95 54 59 41 139 85 365 201 138 72 177 98 265 178 42 39 46 40
49 21 2 -12 -1 -48 -8 -80z m-3603 -383 c213 -63 340 -302 274 -514 -37 -121
-110 -204 -227 -258 -53 -25 -70 -28 -169 -28 -104 0 -114 2 -176 32 -161 79
-260 265 -230 434 27 156 128 277 275 329 64 23 185 25 253 5z m-924 -560 c37
-8 90 -26 118 -42 64 -34 139 -116 176 -191 26 -52 28 -67 28 -167 0 -99 -3
-116 -28 -169 -54 -117 -137 -190 -258 -227 -112 -35 -232 -20 -336 43 -70 42
-117 95 -157 178 -29 61 -31 72 -31 175 0 104 2 114 32 176 57 115 179 208
301 229 69 11 80 11 155 -5z m3871 -364 c4 -5 -5 -22 -18 -38 -38 -45 -56 -89
-72 -171 -8 -42 -18 -80 -22 -84 -4 -4 -59 -9 -122 -10 l-115 -3 -3 62 c-3 74
30 201 55 210 25 10 213 40 255 42 20 0 39 -3 42 -8z m101 -103 c3 -57 5 -195
3 -308 -3 -202 -3 -205 -25 -208 -14 -2 -26 4 -33 17 -14 27 -47 27 -71 -1
-44 -51 -131 -171 -163 -225 -19 -32 -48 -74 -64 -93 l-30 -35 -13 29 c-12 25
-11 33 12 75 182 340 229 452 229 554 1 70 19 157 43 204 15 29 83 93 98 93 4
0 10 -46 14 -102z m-195 -271 c0 -7 -10 -28 -23 -47 -13 -19 -70 -129 -127
-244 l-104 -208 -86 7 c-47 4 -87 8 -88 10 -2 2 15 31 38 64 22 34 54 90 71
124 25 53 29 72 27 132 -2 59 2 78 23 115 28 51 43 56 187 59 60 1 82 -2 82
-12z m-1530 -111 c0 -2 -49 -39 -110 -82 -81 -58 -110 -84 -110 -100 0 -31 17
-41 86 -47 62 -5 133 -31 169 -62 l20 -17 -20 8 c-11 4 -74 9 -140 11 -91 3
-141 -1 -207 -15 -49 -10 -88 -17 -88 -16 0 11 83 174 93 183 15 12 287 140
300 141 4 0 7 -2 7 -4z m-5 -379 l50 -13 6 -105 c8 -128 43 -241 105 -335 l44
-67 -47 -65 c-296 -416 -732 -728 -1228 -881 -148 -46 -447 -103 -461 -88 -15
15 -25 182 -21 342 6 206 29 320 90 441 50 99 63 110 139 118 150 15 345 76
463 144 89 53 237 207 328 343 l78 117 62 17 c154 43 301 55 392 32z m1261
-69 c62 -28 -5 -68 -114 -68 -109 0 -158 26 -116 60 35 30 172 34 230 8z
m-2776 -613 c0 -3 -11 -27 -24 -53 -67 -135 -99 -291 -100 -499 -1 -83 -2
-150 -4 -148 -19 18 -57 248 -65 385 -2 40 -5 45 -28 48 -36 4 -66 -33 -129
-161 -46 -91 -64 -114 -93 -116 -13 -1 2 93 24 157 30 87 -2 115 -84 73 -36
-18 -36 -18 -26 0 5 11 77 87 159 169 l149 150 110 0 c61 0 111 -2 111 -5z
m-520 -445 c0 -21 -15 -27 -25 -10 -7 12 2 30 16 30 5 0 9 -9 9 -20z m260 -48
c1 -44 37 -195 70 -291 16 -49 30 -91 30 -95 0 -3 -17 -6 -38 -6 -37 0 -38 2
-52 48 -15 52 -15 51 -1 105 12 49 -1 98 -39 141 l-30 33 23 51 c23 53 37 58
37 14z m-267 -132 c30 -24 43 -25 88 -6 29 12 39 12 65 1 45 -19 58 -62 33
-111 -24 -48 -24 -60 1 -91 11 -14 20 -36 20 -48 0 -30 -34 -71 -65 -79 -29
-7 -79 15 -88 39 -8 19 -46 19 -71 0 -23 -17 -69 -20 -96 -5 -41 22 -45 97 -6
129 20 17 20 40 1 65 -56 73 45 163 118 106z"/>
<path d="M6223 4746 c-90 -78 -119 -210 -100 -461 11 -151 12 -156 18 -90 4
39 7 133 8 210 3 195 6 209 79 294 34 39 62 74 62 76 0 15 -31 1 -67 -29z"/>
<path d="M5887 4523 c-43 -30 -83 -66 -88 -79 -12 -33 -3 -394 10 -407 25 -25
33 47 27 227 l-6 178 35 33 c19 18 53 44 77 57 42 23 61 48 36 48 -7 -1 -48
-26 -91 -57z"/>
<path d="M5562 4433 c-40 -10 -66 -21 -72 -34 -16 -28 -24 -220 -15 -344 11
-154 23 -101 24 112 1 94 4 179 7 188 8 20 55 45 113 60 48 12 68 36 29 34
-12 -1 -51 -8 -86 -16z"/>
<path d="M5806 3928 c-23 -33 -21 -103 4 -128 11 -11 25 -20 30 -20 6 0 19 9
30 20 40 40 17 150 -30 150 -10 0 -26 -10 -34 -22z"/>
<path d="M5550 3911 c-17 -33 -12 -96 10 -116 19 -17 21 -17 40 0 37 33 22
135 -20 135 -11 0 -24 -9 -30 -19z"/>
<path d="M5672 3908 c-27 -27 -6 -118 27 -118 17 0 41 38 41 64 0 55 -37 85
-68 54z"/>
<path d="M5841 2705 c-10 -29 -15 -141 -18 -396 -5 -345 -5 -357 15 -396 33
-64 84 -101 160 -118 51 -11 38 7 -40 55 -40 24 -79 51 -86 60 -11 12 -12 88
-8 380 3 201 2 385 -3 410 l-7 45 -13 -40z"/>
<path d="M6150 2674 c0 -27 6 -157 14 -289 8 -132 15 -310 15 -396 0 -86 5
-176 11 -202 19 -74 115 -169 156 -153 27 10 14 37 -28 55 -88 38 -93 60 -109
421 -6 135 -12 277 -14 315 -3 73 -33 286 -41 294 -2 2 -4 -18 -4 -45z"/>
<path d="M2653 4211 c-106 -50 -112 -199 -11 -261 62 -38 140 -21 192 40 48
57 31 163 -32 209 -44 31 -99 35 -149 12z"/>
<path d="M1966 3770 c-59 -18 -106 -83 -106 -147 0 -110 132 -181 228 -123 43
27 76 99 68 149 -13 84 -109 145 -190 121z"/>
<path d="M2152 1378 c-18 -18 -14 -53 7 -72 24 -22 49 -18 67 10 13 18 12 24
-7 47 -22 29 -48 34 -67 15z"/>
</g>
</svg>
